<svg width="40" height="32" viewBox="0 0 40 32" fill="none" xmlns="http://www.w3.org/2000/svg">
<path d="M36.8083 3.72167L40 0.668333V0H28.9433L21.0633 19.6133L12.0983 0H0.505V0.668333L4.23333 5.15667C4.59667 5.48833 4.78667 5.97333 4.73833 6.46167V24.1C4.85333 24.735 4.64667 25.3883 4.2 25.85L0 30.94V31.6H11.9083V30.9317L7.70833 25.85C7.25333 25.3867 7.03833 24.745 7.13 24.1V8.84334L17.5833 31.6083H18.7983L27.7867 8.84334V26.9783C27.7867 27.4567 27.7867 27.555 27.4733 27.8683L24.24 30.9967V31.6667H39.9267V30.9983L36.81 27.9467C36.5367 27.74 36.395 27.3933 36.4533 27.0567V4.61167C36.395 4.27333 36.535 3.92667 36.8083 3.72167Z" fill="#14D9C1"/>
</svg>
